<svg t="1612515018059" class="icon" viewBox="0 0 1152 1024" version="1.1" xmlns="http://www.w3.org/2000/svg" p-id="4146" width="200" height="200"><path d="M1046.656 0.96c57.728 0 104.64 46.912 104.64 104.64v793.216c0 57.664-46.912 104.64-104.64 104.64H105.728a104.768 104.768 0 0 1-104.64-104.64V105.6C1.088 47.872 48 0.96 105.728 0.96h940.928zM105.728 77.184a28.416 28.416 0 0 0-28.416 28.416v584.32l170.112-146.688 0.32-0.192c3.136-2.624 20.032-16 44.352-23.04a97.472 97.472 0 0 1 100.16 25.408A2689.088 2689.088 0 0 1 490.88 650.88c23.232-22.208 214.464-200.832 229.44-214.848 7.424-7.488 44.544-42.112 96-42.112 23.296 0 58.176 7.488 92.032 43.136 39.872 41.92 112.896 150.4 166.656 233.344V105.6a28.416 28.416 0 0 0-28.416-28.416H105.728z m940.928 849.984a28.416 28.416 0 0 0 28.416-28.352v-102.528c-53.888-82.56-176.768-259.2-221.952-306.752-12.288-12.928-24.192-19.264-36.352-19.392h-0.384c-18.304 0-36.16 13.888-41.792 19.52l-0.896 0.96-0.64 0.512c-60.48 56.576-219.904 205.504-230.4 215.808-21.44 20.992-42.88 24.192-56.96 23.232a72.448 72.448 0 0 1-49.216-25.792c-5.12-5.76-53.376-60.224-98.176-105.024-7.168-7.232-13.76-9.088-23.36-6.592a58.304 58.304 0 0 0-18.624 9.024L77.312 792.96v105.856c0 15.616 12.8 28.352 28.416 28.352h940.928zM307.328 421.184c-60.672 0-110.08-49.408-110.08-110.08 0-60.8 49.408-110.144 110.08-110.144 60.8 0 110.144 49.408 110.144 110.08 0 60.736-49.408 110.08-110.08 110.08z m0-144a33.92 33.92 0 1 0 0.128 67.84 33.92 33.92 0 0 0-0.128-67.84z" p-id="4147"></path></svg>