<svg id="SvgjsSvg1032" width="511" height="476" xmlns="http://www.w3.org/2000/svg" version="1.1" xmlns:xlink="http://www.w3.org/1999/xlink" xmlns:svgjs="http://svgjs.com/svgjs"><defs id="SvgjsDefs1033"></defs><g id="SvgjsG1034" transform="translate(25,25)"><path id="SvgjsPath1035" d="M 0 4Q 0 0 4 0L 457 0Q 461 0 461 4L 461 422Q 461 426 457 426L 4 426Q 0 426 0 422Z" stroke="rgba(50,50,50,1)" stroke-width="2" fill-opacity="1" fill="#e5e5e5"></path><g id="SvgjsG1036"><text id="SvgjsText1037" font-family="微软雅黑" text-anchor="middle" font-size="13px" width="451px" fill="#323232" font-weight="400" align="middle" anchor="middle" family="微软雅黑" size="13px" weight="400" font-style="" opacity="1" y="21.478571428571428" transform="rotate(0)"><tspan id="SvgjsTspan1038" dy="16" x="230.5"><tspan id="SvgjsTspan1039" style="text-decoration:;">Layout</tspan></tspan></text></g></g><g id="SvgjsG1040" transform="translate(45,74)"><path id="SvgjsPath1041" d="M 0 4Q 0 0 4 0L 104 0Q 108 0 108 4L 108 345Q 108 349 104 349L 4 349Q 0 349 0 345Z" stroke="rgba(50,50,50,1)" stroke-width="2" fill-opacity="1" fill="#ffe6cc"></path><g id="SvgjsG1042"><text id="SvgjsText1043" font-family="微软雅黑" text-anchor="middle" font-size="13px" width="88px" fill="#323232" font-weight="400" align="middle" anchor="middle" family="微软雅黑" size="13px" weight="400" font-style="" opacity="1" y="164.55" transform="rotate(0)"><tspan id="SvgjsTspan1044" dy="16" x="54"><tspan id="SvgjsTspan1045" style="text-decoration:;">SideBar</tspan></tspan></text></g></g><g id="SvgjsG1046" transform="translate(162,74)"><path id="SvgjsPath1047" d="M 0 0L 303 0L 303 349L 0 349Z" stroke="rgba(50,50,50,1)" stroke-width="2" fill-opacity="1" fill="#66b2ff"></path><g id="SvgjsG1048"><text id="SvgjsText1049" font-family="微软雅黑" text-anchor="middle" font-size="13px" width="283px" fill="#323232" font-weight="400" align="middle" anchor="middle" family="微软雅黑" size="13px" weight="400" font-style="" opacity="1" y="164.55" transform="rotate(0)"><tspan id="SvgjsTspan1050" dy="16" x="151.5"><tspan id="SvgjsTspan1051" style="text-decoration:;">Home</tspan></tspan></text></g></g><g id="SvgjsG1052" transform="translate(56,350)"><path id="SvgjsPath1053" d="M 0 4Q 0 0 4 0L 82 0Q 86 0 86 4L 86 58Q 86 62 82 62L 4 62Q 0 62 0 58Z" stroke="rgba(50,50,50,1)" stroke-width="2" fill-opacity="1" fill="#ffff33"></path><g id="SvgjsG1054"><text id="SvgjsText1055" font-family="微软雅黑" text-anchor="middle" font-size="13px" width="66px" fill="#323232" font-weight="400" align="middle" anchor="middle" family="微软雅黑" size="13px" weight="400" font-style="" opacity="1" y="21.05" transform="rotate(0)"><tspan id="SvgjsTspan1056" dy="16" x="43"><tspan id="SvgjsTspan1057" style="text-decoration:;">FooterBar</tspan></tspan></text></g></g></svg>